# xmcd
#
# Track frame offsets: 
#        150
#        36520
#        91605
#        110506
#        166113
#        205295
#        248178
#        267019
#        300031
#        324406
#
# Disc length: 4656 seconds
#
# Revision: 1
# Processed by: cddbd v1.5.2PL0 Copyright (c) Steve Scherf et al.
# Submitted via: ExactAudioCopyFreeDBPlugin 1.0
#
DISCID=74122e0a
DTITLE=Various Artist - Best Of Blue Note 50 [CD 4 of 5)
DYEAR=2011
DGENRE=Jazz
TTITLE0=Lee Morgan - The Procrastinator
TTITLE1=Grant Green - Nomad
TTITLE2=Clifford Brown - Daahoud
TTITLE3=Kenny Dorham - Trompeta Toccata
TTITLE4=Ornette Coleman - Broad Way Blues
TTITLE5=Joe Lovano - At The Vanguard
TTITLE6=Andrew Hill - Flight 19
TTITLE7=Larry Young - The Moontrane
TTITLE8=Gil Evans - St. Louis Blues
TTITLE9=Art Blakey And The Jazz Messengers - The Witch Doctor
EXTD=YEAR: 2011
EXTT0=
EXTT1=
EXTT2=
EXTT3=
EXTT4=
EXTT5=
EXTT6=
EXTT7=
EXTT8=
EXTT9=
PLAYORDER=
